<mxfile host="app.diagrams.net" modified="2022-05-19T05:24:43.550Z" agent="5.0 (Windows NT 10.0; Win64; x64) AppleWebKit/537.36 (KHTML, like Gecko) Chrome/101.0.4951.64 Safari/537.36 Edg/101.0.1210.47" etag="vYeWuprsRiFYYLreR6Rl" version="18.0.2" type="github">
  <diagram id="6a731a19-8d31-9384-78a2-239565b7b9f0" name="Page-1">
    <mxGraphModel dx="1422" dy="909" grid="1" gridSize="10" guides="1" tooltips="1" connect="1" arrows="1" fold="1" page="1" pageScale="1" pageWidth="1169" pageHeight="827" background="none" math="0" shadow="0">
      <root>
        <mxCell id="0" />
        <mxCell id="1" parent="0" />
        <mxCell id="IIeZ-ffbJmcYB0X_P4K9-1779" value="" style="endArrow=none;dashed=1;html=1;rounded=0;" edge="1" parent="1">
          <mxGeometry width="50" height="50" relative="1" as="geometry">
            <mxPoint x="520" y="610" as="sourcePoint" />
            <mxPoint x="520" y="120" as="targetPoint" />
          </mxGeometry>
        </mxCell>
        <mxCell id="IIeZ-ffbJmcYB0X_P4K9-1781" value="制作后的rootfs" style="rounded=0;whiteSpace=wrap;html=1;fillColor=#fff2cc;strokeColor=#d6b656;" vertex="1" parent="1">
          <mxGeometry x="140" y="120" width="120" height="60" as="geometry" />
        </mxCell>
        <mxCell id="IIeZ-ffbJmcYB0X_P4K9-1783" value="远程镜像仓库(DockerHub)" style="shape=cylinder3;whiteSpace=wrap;html=1;boundedLbl=1;backgroundOutline=1;size=15;fillColor=#e1d5e7;strokeColor=#9673a6;" vertex="1" parent="1">
          <mxGeometry x="680" y="110" width="250" height="270" as="geometry" />
        </mxCell>
        <mxCell id="IIeZ-ffbJmcYB0X_P4K9-1784" value="" style="endArrow=classic;html=1;rounded=0;exitX=1;exitY=0.5;exitDx=0;exitDy=0;" edge="1" parent="1" source="IIeZ-ffbJmcYB0X_P4K9-1781">
          <mxGeometry width="50" height="50" relative="1" as="geometry">
            <mxPoint x="780" y="450" as="sourcePoint" />
            <mxPoint x="360" y="150" as="targetPoint" />
          </mxGeometry>
        </mxCell>
        <mxCell id="IIeZ-ffbJmcYB0X_P4K9-1785" value="docker import" style="text;html=1;strokeColor=none;fillColor=none;align=center;verticalAlign=middle;whiteSpace=wrap;rounded=0;" vertex="1" parent="1">
          <mxGeometry x="270" y="120" width="80" height="30" as="geometry" />
        </mxCell>
        <mxCell id="IIeZ-ffbJmcYB0X_P4K9-1786" value="rootfs基础（容器）镜像" style="rounded=0;whiteSpace=wrap;html=1;fillColor=#fff2cc;strokeColor=#d6b656;" vertex="1" parent="1">
          <mxGeometry x="360" y="120" width="120" height="60" as="geometry" />
        </mxCell>
        <mxCell id="IIeZ-ffbJmcYB0X_P4K9-1787" value="" style="shape=flexArrow;endArrow=classic;html=1;rounded=0;exitX=1;exitY=0.5;exitDx=0;exitDy=0;entryX=0;entryY=0.15;entryDx=0;entryDy=0;entryPerimeter=0;fillColor=#dae8fc;strokeColor=#6c8ebf;" edge="1" parent="1" source="IIeZ-ffbJmcYB0X_P4K9-1786" target="IIeZ-ffbJmcYB0X_P4K9-1783">
          <mxGeometry width="50" height="50" relative="1" as="geometry">
            <mxPoint x="780" y="440" as="sourcePoint" />
            <mxPoint x="830" y="390" as="targetPoint" />
          </mxGeometry>
        </mxCell>
        <mxCell id="IIeZ-ffbJmcYB0X_P4K9-1788" value="上传" style="text;html=1;strokeColor=none;fillColor=none;align=center;verticalAlign=middle;whiteSpace=wrap;rounded=0;" vertex="1" parent="1">
          <mxGeometry x="540" y="120" width="60" height="30" as="geometry" />
        </mxCell>
        <mxCell id="IIeZ-ffbJmcYB0X_P4K9-1789" value="" style="shape=flexArrow;endArrow=classic;html=1;rounded=0;exitX=0;exitY=0.5;exitDx=0;exitDy=0;exitPerimeter=0;fillColor=#dae8fc;strokeColor=#6c8ebf;" edge="1" parent="1" source="IIeZ-ffbJmcYB0X_P4K9-1783">
          <mxGeometry width="50" height="50" relative="1" as="geometry">
            <mxPoint x="570" y="310" as="sourcePoint" />
            <mxPoint x="470" y="245" as="targetPoint" />
          </mxGeometry>
        </mxCell>
        <mxCell id="IIeZ-ffbJmcYB0X_P4K9-1790" value="rootfs基础镜像" style="text;html=1;strokeColor=none;fillColor=none;align=center;verticalAlign=middle;whiteSpace=wrap;rounded=0;" vertex="1" parent="1">
          <mxGeometry x="525" y="210" width="95" height="30" as="geometry" />
        </mxCell>
        <mxCell id="IIeZ-ffbJmcYB0X_P4K9-1791" value="dockerfile" style="rounded=0;whiteSpace=wrap;html=1;fillColor=#d5e8d4;strokeColor=#82b366;" vertex="1" parent="1">
          <mxGeometry x="300" y="215" width="170" height="60" as="geometry" />
        </mxCell>
        <mxCell id="IIeZ-ffbJmcYB0X_P4K9-1792" value="" style="endArrow=classic;html=1;rounded=0;exitX=0.5;exitY=1;exitDx=0;exitDy=0;" edge="1" parent="1" source="IIeZ-ffbJmcYB0X_P4K9-1791">
          <mxGeometry width="50" height="50" relative="1" as="geometry">
            <mxPoint x="780" y="430" as="sourcePoint" />
            <mxPoint x="385" y="350" as="targetPoint" />
            <Array as="points">
              <mxPoint x="385" y="300" />
            </Array>
          </mxGeometry>
        </mxCell>
        <mxCell id="IIeZ-ffbJmcYB0X_P4K9-1794" value="docker builld" style="text;html=1;strokeColor=none;fillColor=none;align=center;verticalAlign=middle;whiteSpace=wrap;rounded=0;" vertex="1" parent="1">
          <mxGeometry x="390" y="290" width="60" height="30" as="geometry" />
        </mxCell>
        <mxCell id="IIeZ-ffbJmcYB0X_P4K9-1795" value="基于rootfs基础镜像的简单镜像" style="rounded=0;whiteSpace=wrap;html=1;fillColor=#d5e8d4;strokeColor=#82b366;" vertex="1" parent="1">
          <mxGeometry x="300" y="354" width="170" height="60" as="geometry" />
        </mxCell>
        <mxCell id="IIeZ-ffbJmcYB0X_P4K9-1796" value="" style="endArrow=classic;html=1;rounded=0;exitX=0.5;exitY=1;exitDx=0;exitDy=0;" edge="1" parent="1" source="IIeZ-ffbJmcYB0X_P4K9-1795">
          <mxGeometry width="50" height="50" relative="1" as="geometry">
            <mxPoint x="780" y="560" as="sourcePoint" />
            <mxPoint x="385" y="480" as="targetPoint" />
          </mxGeometry>
        </mxCell>
        <mxCell id="IIeZ-ffbJmcYB0X_P4K9-1797" value="obdconv" style="text;html=1;strokeColor=none;fillColor=none;align=center;verticalAlign=middle;whiteSpace=wrap;rounded=0;" vertex="1" parent="1">
          <mxGeometry x="380" y="430" width="60" height="30" as="geometry" />
        </mxCell>
        <mxCell id="IIeZ-ffbJmcYB0X_P4K9-1798" value="obd格式的rootfs镜像" style="rounded=0;whiteSpace=wrap;html=1;fillColor=#d5e8d4;strokeColor=#82b366;" vertex="1" parent="1">
          <mxGeometry x="300" y="480" width="170" height="60" as="geometry" />
        </mxCell>
        <mxCell id="IIeZ-ffbJmcYB0X_P4K9-1799" value="" style="shape=flexArrow;endArrow=classic;html=1;rounded=0;exitX=1;exitY=0.5;exitDx=0;exitDy=0;entryX=0;entryY=0;entryDx=0;entryDy=195;entryPerimeter=0;dashed=1;dashPattern=1 1;fillColor=#f5f5f5;strokeColor=#666666;" edge="1" parent="1" source="IIeZ-ffbJmcYB0X_P4K9-1798" target="IIeZ-ffbJmcYB0X_P4K9-1783">
          <mxGeometry width="50" height="50" relative="1" as="geometry">
            <mxPoint x="780" y="560" as="sourcePoint" />
            <mxPoint x="830" y="510" as="targetPoint" />
          </mxGeometry>
        </mxCell>
        <mxCell id="IIeZ-ffbJmcYB0X_P4K9-1800" value="可以选择上传" style="text;html=1;strokeColor=none;fillColor=none;align=center;verticalAlign=middle;whiteSpace=wrap;rounded=0;" vertex="1" parent="1">
          <mxGeometry x="585" y="410" width="60" height="30" as="geometry" />
        </mxCell>
      </root>
    </mxGraphModel>
  </diagram>
</mxfile>
